<svg width="32" height="24" viewBox="0 0 32 24" fill="none" xmlns="http://www.w3.org/2000/svg">
<rect width="32" height="24" fill="#F5F5F5"/>
<g id="Screen 1">
<g id="iPhone 13 / 13 Pro - 10" filter="url(#filter0_d_1_44)">
<g clip-path="url(#clip0_1_44)">
<rect x="-18" y="-75" width="390" height="844" rx="30" fill="white"/>
<path id="Arrow 1" d="M0.939339 13.0607C0.353552 12.4749 0.353552 11.5251 0.939339 10.9393L10.4853 1.3934C11.0711 0.807611 12.0208 0.807611 12.6066 1.3934C13.1924 1.97919 13.1924 2.92893 12.6066 3.51472L4.12132 12L12.6066 20.4853C13.1924 21.0711 13.1924 22.0208 12.6066 22.6066C12.0208 23.1924 11.0711 23.1924 10.4853 22.6066L0.939339 13.0607ZM32 13.5H2V10.5H32V13.5Z" fill="black"/>
</g>
<rect x="-23" y="-80" width="400" height="854" rx="35" stroke="black" stroke-width="10"/>
</g>
</g>
<defs>
<filter id="filter0_d_1_44" x="-48" y="-101" width="450" height="904" filterUnits="userSpaceOnUse" color-interpolation-filters="sRGB">
<feFlood flood-opacity="0" result="BackgroundImageFix"/>
<feColorMatrix in="SourceAlpha" type="matrix" values="0 0 0 0 0 0 0 0 0 0 0 0 0 0 0 0 0 0 127 0" result="hardAlpha"/>
<feOffset dy="4"/>
<feGaussianBlur stdDeviation="10"/>
<feComposite in2="hardAlpha" operator="out"/>
<feColorMatrix type="matrix" values="0 0 0 0 0 0 0 0 0 0 0 0 0 0 0 0 0 0 0.2 0"/>
<feBlend mode="normal" in2="BackgroundImageFix" result="effect1_dropShadow_1_44"/>
<feBlend mode="normal" in="SourceGraphic" in2="effect1_dropShadow_1_44" result="shape"/>
</filter>
<clipPath id="clip0_1_44">
<rect x="-18" y="-75" width="390" height="844" rx="30" fill="white"/>
</clipPath>
</defs>
</svg>
